<svg width="20" height="20" viewBox="0 0 20 20" fill="none" xmlns="http://www.w3.org/2000/svg">
<path d="M10.0003 1.875C8.28406 1.875 6.87531 3.28375 6.87531 5V5.625H3.78906L3.75031 6.21125L3.12531 17.4613L3.08594 18.125H16.9141L16.8753 17.4606L16.2503 6.21063L16.2109 5.625H13.1253V5C13.1253 3.28375 11.7166 1.875 10.0003 1.875ZM10.0003 3.125C10.4976 3.125 10.9745 3.32254 11.3261 3.67417C11.6778 4.02581 11.8753 4.50272 11.8753 5V5.625H8.12531V5C8.12531 4.50272 8.32286 4.02581 8.67449 3.67417C9.02612 3.32254 9.50303 3.125 10.0003 3.125ZM4.96094 6.875H6.87531V8.75H8.12531V6.875H11.8753V8.75H13.1253V6.875H15.0397L15.5866 16.875H4.41469L4.96094 6.875Z" fill="#232323"/>
</svg>
